<svg width="141" height="132" viewBox="0 0 141 132" fill="none" xmlns="http://www.w3.org/2000/svg">
<ellipse cx="70.5" cy="62" rx="66.5" ry="62" fill="#6C8F9B"/>
<mask id="mask0_7_2" style="mask-type:alpha" maskUnits="userSpaceOnUse" x="4" y="0" width="133" height="124">
<path d="M70.5 0.5C70.8131 0.500008 71.1168 0.509799 71.4404 0.519531H71.4492C80.9138 0.63855 90.2389 2.65915 98.7871 6.44336C107.335 10.2275 114.904 15.6858 120.979 22.4424L120.984 22.4473C121.24 22.7233 121.484 22.999 121.719 23.2744L121.724 23.2793C131.284 34.2223 136.5 47.8991 136.5 62.002C136.5 76.105 131.284 89.7825 121.724 100.726L121.719 100.73C121.484 101.006 121.24 101.282 120.984 101.558L120.979 101.562C114.904 108.319 107.335 113.777 98.7871 117.562C90.2389 121.346 80.9138 123.366 71.4492 123.485H71.4404C70.8126 123.504 70.1865 123.504 69.5586 123.485H69.5498C60.0521 123.366 50.6958 121.331 42.124 117.521C33.5524 113.71 25.9694 108.217 19.8955 101.419L19.8809 101.401L19.8643 101.386L19.8584 101.38C19.7013 101.222 19.5538 101.056 19.418 100.882C19.4025 100.861 19.385 100.841 19.3672 100.822L19.3691 100.821C9.75108 89.8653 4.5 76.1488 4.5 62.002C4.50012 47.8553 9.75118 34.1395 19.3691 23.1836L19.3672 23.1816C19.3848 23.1627 19.4026 23.1442 19.418 23.123C19.5562 22.9462 19.706 22.7768 19.8662 22.6162L19.876 22.6064L19.8857 22.5957C25.9604 15.7954 33.5438 10.299 42.1172 6.4873C50.6907 2.67559 60.0497 0.639731 69.5498 0.519531H69.5586C69.8823 0.509794 70.1868 0.5 70.5 0.5ZM68.6758 89.1416C59.7299 89.2468 50.8341 90.4181 42.2061 92.626L41.6758 92.7617L41.8594 93.2783C47.4595 108.991 57.2285 119.93 68.6338 121.024L69.1816 121.077V89.1357L68.6758 89.1416ZM71.8184 121.077L72.3652 121.024C83.7706 119.93 93.5396 108.991 99.1396 93.2783L99.3242 92.7617L98.793 92.626C90.165 90.4181 81.2699 89.2469 72.3242 89.1416L71.8184 89.1357V121.077ZM38.8008 93.5898C33.2999 95.2232 28.0358 97.4843 23.1279 100.321L22.5801 100.638L23.0146 101.098C31.6881 110.281 43.1998 116.724 55.959 119.543L56.3584 118.648C49.3267 113.6 43.3808 104.901 39.4131 93.8994L39.2529 93.4561L38.8008 93.5898ZM101.586 93.8994C97.6182 104.901 91.6723 113.6 84.6406 118.648L85.04 119.543C97.7956 116.721 109.306 110.282 117.984 101.107L118.419 100.648L117.872 100.331C112.969 97.4829 107.703 95.2183 102.198 93.5898L101.746 93.4561L101.586 93.8994ZM106.876 63.6924C106.773 72.8315 105.359 81.9174 102.669 90.707L102.521 91.1895L103.006 91.333C108.886 93.0634 114.502 95.4922 119.716 98.5596L120.08 98.7734L120.352 98.4512C128.728 88.5271 133.457 76.3464 133.832 63.7129L133.847 63.1982H106.882L106.876 63.6924ZM71.8184 86.7461L72.3125 86.751C81.5425 86.8527 90.7198 88.0687 99.6143 90.3682L100.08 90.4883L100.218 90.0273C102.787 81.4549 104.14 72.6044 104.239 63.7031L104.245 63.1982H71.8184V86.7461ZM36.7598 63.7031C36.8595 72.6012 38.2117 81.4484 40.7812 90.0176L40.9189 90.4785L41.3848 90.3584C50.282 88.0708 59.4584 86.8584 68.6875 86.751L69.1816 86.7451V63.1982H36.7539L36.7598 63.7031ZM20.6475 25.5439C12.2711 35.4717 7.54173 47.6555 7.16699 60.292L7.15234 60.8066H34.1172L34.123 60.3125C34.2247 51.1765 35.6395 42.0938 38.3301 33.3076L38.4785 32.8252L37.9941 32.6816C32.1128 30.9449 26.4958 28.5094 21.2832 25.4355L20.9199 25.2217L20.6475 25.5439ZM99.6143 33.6367C90.7198 35.9363 81.5425 37.1522 72.3125 37.2539L71.8184 37.2588V60.8066H104.245L104.239 60.3018C104.14 51.4005 102.787 42.55 100.218 33.9775L100.08 33.5166L99.6143 33.6367ZM119.716 25.4453C114.502 28.5127 108.886 30.9416 103.006 32.6719L102.521 32.8145L102.669 33.2979C105.359 42.0875 106.773 51.1734 106.876 60.3125L106.882 60.8066H133.847L133.832 60.292C133.457 47.6584 128.728 35.4778 120.352 25.5537L120.08 25.2314L119.716 25.4453ZM68.6338 2.98047C57.2285 4.0747 47.4595 15.0142 41.8594 30.7266L41.6758 31.2432L42.2061 31.3789C50.8341 33.5868 59.7299 34.758 68.6758 34.8633L69.1816 34.8691V2.92773L68.6338 2.98047ZM71.8184 34.8691L72.3242 34.8633C81.2699 34.758 90.165 33.5868 98.793 31.3789L99.3242 31.2432L99.1396 30.7266C93.5396 15.0142 83.7706 4.0747 72.3652 2.98047L71.8184 2.92773V34.8691ZM55.959 4.46191C43.1997 7.28116 31.6881 13.7242 23.0146 22.9072L22.5801 23.3672L23.1279 23.6836C28.0358 26.5206 33.2999 28.7817 38.8008 30.415L39.2529 30.5488L39.4131 30.1055C43.3808 19.1038 49.3267 10.4047 56.3584 5.35645L55.959 4.46191ZM85.04 4.46191L84.6406 5.35645C91.6723 10.4047 97.6182 19.1038 101.586 30.1055L101.746 30.5488L102.198 30.415C107.703 28.7866 112.969 26.522 117.872 23.6738L118.419 23.3564L117.984 22.8975C109.306 13.7224 97.7956 7.28372 85.04 4.46191ZM38.3525 90.7686L38.3301 90.6973C35.6395 81.9111 34.2247 72.8283 34.123 63.6924L34.1172 63.1982H7.15234L7.16699 63.7129C7.54174 76.3493 12.2711 88.5332 20.6475 98.4609L20.9199 98.7832L21.2832 98.5684C26.4937 95.494 32.1108 93.0624 37.9932 91.333L38.3525 91.2275V90.7686ZM69.1816 37.2598L68.6875 37.2539C59.4584 37.1465 50.282 35.9341 41.3848 33.6465L40.9189 33.5264L40.7812 33.9863C38.2116 42.5556 36.8595 51.4036 36.7598 60.3018L36.7539 60.8066H69.1816V37.2598Z" fill="#110101" stroke="black"/>
</mask>
<g mask="url(#mask0_7_2)">
<g filter="url(#filter0_d_7_2)">
<ellipse cx="70.5" cy="62" rx="66.5" ry="62" fill="#4A444D" fill-opacity="0.61" shape-rendering="crispEdges"/>
</g>
</g>
<g filter="url(#filter1_d_7_2)">
<g filter="url(#filter2_d_7_2)">
<path d="M95 109V92.75C98.4715 92.75 101.286 89.8399 101.286 86.25H117L116.972 87.4211C116.383 99.4414 106.77 109 95 109Z" fill="#FFD901"/>
<path d="M117 40.75H101.286C101.286 37.1601 98.4715 34.25 95 34.25H51C47.5285 34.25 44.7143 37.1601 44.7143 40.75V86.25C44.7143 89.8399 47.5285 92.75 51 92.75V109C38.8497 109 29 98.8145 29 86.25V40.75C29 28.1855 38.8497 18 51 18H95L96.1325 18.0286C107.757 18.6381 117 28.5783 117 40.75ZM95 92.75V109H51V92.75H95Z" fill="#FFD901"/>
</g>
<rect x="71" y="51" width="6" height="25" fill="#FFD901"/>
<rect x="87" y="60" width="6" height="25" transform="rotate(90 87 60)" fill="#FFD901"/>
<rect x="100" y="51" width="6" height="25" fill="#FFD901"/>
<rect x="116" y="60" width="6" height="25" transform="rotate(90 116 60)" fill="#FFD901"/>
</g>
<defs>
<filter id="filter0_d_7_2" x="0" y="0" width="141" height="132" filterUnits="userSpaceOnUse" color-interpolation-filters="sRGB">
<feFlood flood-opacity="0" result="BackgroundImageFix"/>
<feColorMatrix in="SourceAlpha" type="matrix" values="0 0 0 0 0 0 0 0 0 0 0 0 0 0 0 0 0 0 127 0" result="hardAlpha"/>
<feOffset dy="4"/>
<feGaussianBlur stdDeviation="2"/>
<feComposite in2="hardAlpha" operator="out"/>
<feColorMatrix type="matrix" values="0 0 0 0 0 0 0 0 0 0 0 0 0 0 0 0 0 0 0.25 0"/>
<feBlend mode="normal" in2="BackgroundImageFix" result="effect1_dropShadow_7_2"/>
<feBlend mode="normal" in="SourceGraphic" in2="effect1_dropShadow_7_2" result="shape"/>
</filter>
<filter id="filter1_d_7_2" x="25" y="18" width="96" height="99" filterUnits="userSpaceOnUse" color-interpolation-filters="sRGB">
<feFlood flood-opacity="0" result="BackgroundImageFix"/>
<feColorMatrix in="SourceAlpha" type="matrix" values="0 0 0 0 0 0 0 0 0 0 0 0 0 0 0 0 0 0 127 0" result="hardAlpha"/>
<feOffset dy="4"/>
<feGaussianBlur stdDeviation="2"/>
<feComposite in2="hardAlpha" operator="out"/>
<feColorMatrix type="matrix" values="0 0 0 0 0 0 0 0 0 0 0 0 0 0 0 0 0 0 0.8 0"/>
<feBlend mode="normal" in2="BackgroundImageFix" result="effect1_dropShadow_7_2"/>
<feBlend mode="normal" in="SourceGraphic" in2="effect1_dropShadow_7_2" result="shape"/>
</filter>
<filter id="filter2_d_7_2" x="25" y="18" width="96" height="99" filterUnits="userSpaceOnUse" color-interpolation-filters="sRGB">
<feFlood flood-opacity="0" result="BackgroundImageFix"/>
<feColorMatrix in="SourceAlpha" type="matrix" values="0 0 0 0 0 0 0 0 0 0 0 0 0 0 0 0 0 0 127 0" result="hardAlpha"/>
<feOffset dy="4"/>
<feGaussianBlur stdDeviation="2"/>
<feComposite in2="hardAlpha" operator="out"/>
<feColorMatrix type="matrix" values="0 0 0 0 0 0 0 0 0 0 0 0 0 0 0 0 0 0 0.25 0"/>
<feBlend mode="normal" in2="BackgroundImageFix" result="effect1_dropShadow_7_2"/>
<feBlend mode="normal" in="SourceGraphic" in2="effect1_dropShadow_7_2" result="shape"/>
</filter>
</defs>
</svg>
