<?xml version="1.0" encoding="iso-8859-1"?>
<!-- Generator: Adobe Illustrator 22.0.1, SVG Export Plug-In . SVG Version: 6.00 Build 0)  -->
<svg version="1.1" id="Layer_1" xmlns="http://www.w3.org/2000/svg" xmlns:xlink="http://www.w3.org/1999/xlink" x="0px" y="0px"
	 viewBox="0 0 2048 2048" style="enable-background:new 0 0 2048 2048;" xml:space="preserve">
<g>
	<path style="fill:#D0DDEB;" d="M822.459,1154.507V276.645c0-11.402,9.243-20.645,20.645-20.645h732.932
		c11.402,0,20.645,9.243,20.645,20.645v877.862c0,11.402-9.243,20.645-20.645,20.645H843.104
		C831.703,1175.153,822.459,1165.909,822.459,1154.507z"/>
	<path style="fill:#D9E7F5;" d="M729.674,1247.293V369.43c0-11.402,9.243-20.645,20.645-20.645h732.932
		c11.402,0,20.645,9.243,20.645,20.645v877.862c0,11.402-9.243,20.645-20.645,20.645H750.319
		C738.917,1267.938,729.674,1258.695,729.674,1247.293z"/>
	<g>
		<path style="fill:#E1EFFF;" d="M636.889,1340.078V462.216c0-11.402,9.243-20.645,20.645-20.645h732.932
			c11.402,0,20.645,9.243,20.645,20.645v877.862c0,11.402-9.243,20.645-20.645,20.645H657.534
			C646.132,1360.723,636.889,1351.48,636.889,1340.078z"/>
		<g>
			<g>
				<g>
					<g>
						<path style="fill:#B0CCDD;" d="M1304.773,791.465H743.227c-13.682,0-24.774-11.092-24.774-24.774
							c0-13.682,11.092-24.774,24.774-24.774h561.547c13.682,0,24.774,11.092,24.774,24.774
							C1329.547,780.373,1318.456,791.465,1304.773,791.465z"/>
					</g>
					<g>
						<path style="fill:#B0CCDD;" d="M1304.773,683.091H743.227c-13.682,0-24.774-11.092-24.774-24.774
							c0-13.682,11.092-24.774,24.774-24.774h561.547c13.682,0,24.774,11.092,24.774,24.774
							C1329.547,672,1318.456,683.091,1304.773,683.091z"/>
					</g>
					<g>
						<path style="fill:#B0CCDD;" d="M1304.773,574.718H743.227c-13.682,0-24.774-11.092-24.774-24.774
							c0-13.682,11.092-24.774,24.774-24.774h561.547c13.682,0,24.774,11.092,24.774,24.774
							C1329.547,563.626,1318.456,574.718,1304.773,574.718z"/>
					</g>
				</g>
				<g>
					<g>
						<path style="fill:#B0CCDD;" d="M1304.773,899.838h-221.48c-13.682,0-24.774-11.092-24.774-24.774
							c0-13.682,11.092-24.774,24.774-24.774h221.48c13.682,0,24.774,11.092,24.774,24.774
							C1329.547,888.746,1318.456,899.838,1304.773,899.838z"/>
					</g>
				</g>
			</g>
		</g>
	</g>
	<path style="fill:#F7E07F;" d="M1647.619,1792H400.381c-22.091,0-40-17.909-40-40V983.883h1287.239c22.091,0,40,17.909,40,40V1752
		C1687.619,1774.091,1669.711,1792,1647.619,1792z"/>
	<path style="fill:#EBCD6D;" d="M902.636,853.211H401.671c-22.804,0-41.29,18.486-41.29,41.29v89.382h674.316L902.636,853.211z"/>
</g>
</svg>
