<?xml version="1.0" encoding="UTF-8"?>
<!DOCTYPE svg PUBLIC "-//W3C//DTD SVG 1.1//EN" "http://www.w3.org/Graphics/SVG/1.1/DTD/svg11.dtd">
<!-- Creator: CorelDRAW -->
<svg xmlns="http://www.w3.org/2000/svg" xml:space="preserve" width="6.82666in" height="6.82666in" style="shape-rendering:geometricPrecision; text-rendering:geometricPrecision; image-rendering:optimizeQuality; fill-rule:evenodd; clip-rule:evenodd"
viewBox="0 0 6.82666 6.82666"
 xmlns:xlink="http://www.w3.org/1999/xlink"
 version="1.1">
 <defs>
  <style type="text/css">
   <![CDATA[
    .fil6 {fill:none}
    .fil3 {fill:#8196A0}
    .fil2 {fill:#90A4AE}
    .fil1 {fill:#D3DADE}
    .fil0 {fill:#DDE2E4}
    .fil5 {fill:#DDE3E7}
    .fil4 {fill:#EDEFF0}
   ]]>
  </style>
 </defs>
 <g id="Layer_x0020_1">
  <metadata id="CorelCorpID_0Corel-Layer"/>
  <g id="Guides">
  </g>
  <g id="Layer_2">
  </g>
  <g id="Layer_3">
  </g>
  <g id="Layer_4">
  </g>
  <g id="Layer_5">
  </g>
  <g id="Layer_6">
  </g>
  <g id="Layer_7">
  </g>
  <g id="Layer_8">
  </g>
  <g id="Layer_9">
  </g>
  <g id="Layer_10">
  </g>
  <g id="Layer_11">
  </g>
  <g id="Layer_12">
  </g>
  <g id="Layer_13">
  </g>
  <g id="Layer_14">
  </g>
  <rect class="fil0" x="1.56867" y="1.01334" width="3.68933" height="4.79999"/>
  <rect class="fil1" x="3.41333" y="1.01334" width="1.84466" height="4.79999"/>
  <path class="fil2" d="M4.63019 4.32676l-2.43372 0c-0.0441654,0 -0.08,-0.0358346 -0.08,-0.08 0,-0.0441654 0.0358346,-0.08 0.08,-0.08l2.43372 0c0.0441654,0 0.08,0.0358346 0.08,0.08 0,0.0441654 -0.0358307,0.08 -0.08,0.08z"/>
  <path class="fil2" d="M4.63019 5.39886l-2.43372 0c-0.0441654,0 -0.08,-0.0358346 -0.08,-0.08 0,-0.0441654 0.0358346,-0.08 0.08,-0.08l2.43372 0c0.0441654,0 0.08,0.0358346 0.08,0.08 0,0.0441654 -0.0358307,0.08 -0.08,0.08z"/>
  <path class="fil2" d="M4.63019 4.86283l-2.43372 0c-0.0441654,0 -0.08,-0.0358346 -0.08,-0.08 0,-0.0441654 0.0358346,-0.08 0.08,-0.08l2.43372 0c0.0441654,0 0.08,0.0358346 0.08,0.08 0,0.0441654 -0.0358307,0.08 -0.08,0.08z"/>
  <path class="fil3" d="M4.63019 4.32676l-1.21687 0 0 -0.16 1.21687 0c0.0441654,0 0.08,0.0358346 0.08,0.08l0 0c0,0.0442008 -0.0358307,0.08 -0.08,0.08z"/>
  <path class="fil3" d="M4.63019 4.86283l-1.21687 0 0 -0.16 1.21687 0c0.0441654,0 0.08,0.0358346 0.08,0.08l0 0c0,0.0441654 -0.0358307,0.08 -0.08,0.08z"/>
  <path class="fil3" d="M4.63019 5.39886l-1.21687 0 0 -0.16 1.21687 0c0.0441654,0 0.08,0.0358346 0.08,0.08l0 0c0,0.0442008 -0.0358307,0.08 -0.08,0.08z"/>
  <path class="fil2" d="M4.48969 2.7994l0 -0.298063 -0.252634 -0.0282008c-0.0199685,-0.104335 -0.0592992,-0.201768 -0.114067,-0.2885l0.162134 -0.202866 -0.210768 -0.210768 -0.200165 0.159969c-0.0846654,-0.0557992 -0.180067,-0.0966654 -0.282402,-0.118835l-0.0294331 -0.263866 -0.298059 0 -0.0294331 0.263866c-0.0989685,0.0214685 -0.191465,0.0603661 -0.274031,0.113366l-0.216067 -0.172701 -0.210768 0.210768 0.172768 0.216165c-0.0511654,0.0797992 -0.0891654,0.168866 -0.111,0.264098l-0.2845 0.0317323 0 0.298067 0.281268 0.0314016c0.0197677,0.0941969 0.0553661,0.182563 0.103835,0.262228l-0.180567 0.225933 0.210768 0.210768 0.219567 -0.1755c0.0785984,0.0527992 0.166598,0.0926654 0.261,0.116531l0.0314331 0.281701 0.298059 0 0.0301339 -0.270201c0.0994331,-0.0184016 0.192732,-0.0543346 0.276567,-0.104469l0.212835 0.170098 0.210768 -0.210768 -0.162866 -0.203768c0.0575315,-0.0833661 0.100366,-0.177665 0.124732,-0.27913l0.260894 -0.0290591z"/>
  <path class="fil3" d="M4.48969 2.7994l0 -0.298063 -0.252634 -0.0282008c-0.0199685,-0.104335 -0.0592992,-0.201768 -0.114067,-0.2885l0.162134 -0.202866 -0.210768 -0.210768 -0.200165 0.159969c-0.0846654,-0.0557992 -0.180067,-0.0966654 -0.282402,-0.118835l-0.0294331 -0.263866 -0.149031 0 0 2.17846 0.123335 0 0.0301339 -0.270201c0.0994331,-0.0184016 0.192732,-0.0543346 0.276567,-0.104469l0.212835 0.170098 0.210768 -0.210768 -0.162835 -0.203768c0.0575315,-0.0833661 0.100366,-0.177665 0.124732,-0.27913l0.260831 -0.0290945z"/>
  <circle class="fil4" cx="3.41333" cy="2.63183" r="0.439964"/>
  <path class="fil5" d="M3.41333 2.19187l0 0.879929c0.243,0 0.439965,-0.196965 0.439965,-0.439961 3.93701e-006,-0.243 -0.196996,-0.439969 -0.439965,-0.439969z"/>
  <g id="Layer_16">
  </g>
  <g id="Layer_17">
  </g>
  <g id="Layer_18">
  </g>
  <g id="Layer_19">
  </g>
  <g id="Layer_20">
  </g>
  <g id="Layer_21">
  </g>
  <g id="Layer_22">
  </g>
  <g id="Layer_23">
  </g>
  <g id="Layer_24">
  </g>
  <g id="Layer_25">
  </g>
  <g id="Layer_26">
  </g>
 </g>
 <rect class="fil6" width="6.82666" height="6.82666"/>
</svg>
