<svg xmlns="http://www.w3.org/2000/svg" width="22" height="22" viewBox="0 0 22 22">
  <path d="M18.613,6.215l1.579-1.579L17.364,1.808,15.785,3.387A8.969,8.969,0,0,0,13,2.23V0H9V2.23A8.969,8.969,0,0,0,6.215,3.387L4.636,1.808,1.808,4.636,3.387,6.215A8.965,8.965,0,0,0,2.23,9H0v4H2.23a8.977,8.977,0,0,0,1.156,2.785l-1.579,1.58,2.828,2.827,1.579-1.579A8.984,8.984,0,0,0,9,19.77V22h4V19.77a8.991,8.991,0,0,0,2.785-1.156l1.579,1.579,2.828-2.827-1.579-1.58A8.953,8.953,0,0,0,19.769,13H22V9H19.77A8.965,8.965,0,0,0,18.613,6.215ZM12.5,13.028,9,15.038V7l3.5,2.01L16,11.019Z"/>
</svg>
